<?xml version="1.0" encoding="UTF-8"?>
<svg height="600" width="800" xmlns="http://www.w3.org/2000/svg" xmlns:xlink="http://www.w3.org/1999/xlink">
    <g id="Notes" font-family="'LucidaGrande', 'Lucida Grande', sans-serif" font-size="13">
        <rect fill="white" height="600.0" width="800.0" x="0.0" y="0.0" />
        <g font-size="13">
            <text x="18.0" y="176.0">Small</text>
            <text x="18.0" y="376.0">Medium</text>
            <text x="18.0" y="576.0">Large</text>
        </g>
        <g font-size="9">
            <text x="250.0" y="30.0">Ultralight</text>
            <text x="450.0" y="30.0">Regular</text>
            <text x="650.0" y="30.0">Black</text>
            <text id="template-version" fill="#505050" text-anchor="end" x="785.0" y="575.0">Template v.3.0</text>
            <a href="https://wangchujiang.com/#/app">
                <text fill="#505050" text-anchor="end" x="785.0" y="590.0">https://wangchujiang.com/#/app</text>
            </a>
        </g>
    </g>
    <g id="Guides" stroke="rgb(39, 170, 225)" stroke-width="0.5">
        <path id="Capline-S" d="M18,76 l800,0" />
        <path id="H-reference" d="M85,145.755 L87.685,145.755 L113.369,79.287 L114.052,79.287 L114.052,76 L112.148,76 L85,145.755 Z M95.693,121.536 L130.996,121.536 L130.263,119.313 L96.474,119.313 L95.693,121.536 Z M139.15,145.755 L141.787,145.755 L114.638,76 L113.466,76 L113.466,79.287 L139.15,145.755 Z" stroke="none" />
        <path id="Baseline-S" d="M18,146 l800,0" />
        <path id="left-margin-Ultralight-S" d="M221,56 l0,110" />
        <path id="right-margin-Ultralight-S" d="M309,56 l0,110" />
        <path id="left-margin-Regular-S" d="M421,56 l0,110" />
        <path id="right-margin-Regular-S" d="M509,56 l0,110" />
        <path id="left-margin-Black-S" d="M621,56 l0,110" />
        <path id="right-margin-Black-S" d="M709,56 l0,110" />
        <path id="Capline-M" d="M18,276 l800,0" />
        <path id="Baseline-M" d="M18,346 l800,0" />
        <path id="Capline-L" d="M18,476 l800,0" />
        <path id="Baseline-L" d="M18,546 l800,0" />
    </g>
    <g id="Symbols">
        <g id="Ultralight-S">
            <path d="M269.376,76 C273.152,84.909 255.839,90.368 254.229,97.794 C252.757,104.609 264.485,112.603 264.495,112.603 C262.707,109.784 261.403,107.407 259.615,103.011 C256.585,95.585 278.074,88.885 269.376,76 Z M280.819,88.369 C280.819,88.369 265.684,89.327 264.916,99.224 C264.569,103.631 268.913,105.945 269.039,109.153 C269.144,111.772 266.43,113.95 266.43,113.95 C266.43,113.95 271.3,113.066 272.826,109.069 C274.508,104.63 269.544,101.601 270.049,98.046 C270.533,94.649 280.819,88.369 280.819,88.369 Z M284.522,111.173 C282.933,111.099 281.145,111.688 279.557,112.856 C282.692,112.161 285.363,114.128 285.363,116.39 C285.363,121.459 278.127,126.235 278.127,126.235 C278.127,126.235 289.318,124.983 289.318,116.642 C289.318,113.203 287.162,111.299 284.522,111.173 Z M254.818,111.257 C250.916,111.394 243.122,112.035 243.122,115.043 C243.122,119.23 261.277,119.556 274.256,116.979 C274.256,116.979 277.79,114.517 278.716,113.613 C270.206,115.38 250.779,115.653 250.779,114.118 C250.779,112.708 257.006,111.257 257.006,111.257 C257.006,111.257 256.123,111.215 254.818,111.257 Z M253.64,118.998 C251.505,118.998 248.339,120.66 248.339,122.28 C248.339,125.541 264.411,128.044 276.275,123.29 L272.152,120.765 C264.106,123.395 249.244,122.522 253.64,118.998 Z M255.66,126.319 C252.746,126.319 250.864,128.16 250.864,129.516 C250.864,133.692 268.271,134.102 275.182,129.853 L270.806,126.992 C265.652,129.211 252.683,129.537 255.66,126.319 Z M245.899,130.105 C241.145,130.011 238.074,132.167 238.074,133.976 C238.074,143.6 286.794,143.137 286.794,133.303 C286.794,131.673 284.869,130.894 284.185,130.526 C288.161,139.929 244.384,139.193 244.384,133.639 C244.384,132.377 247.624,131.115 250.611,131.704 L248.087,130.274 C247.34,130.158 246.583,130.116 245.899,130.105 Z M291.926,136.585 C284.522,143.747 265.778,146.314 246.909,141.886 C265.778,149.774 291.832,145.388 291.926,136.585 Z" />
        </g>
        <g id="Regular-S">
            <path d="M469.376,76 C473.152,84.909 455.839,90.368 454.229,97.794 C452.757,104.609 464.485,112.603 464.495,112.603 C462.707,109.784 461.403,107.407 459.615,103.011 C456.585,95.585 478.074,88.885 469.376,76 Z M480.819,88.369 C480.819,88.369 465.684,89.327 464.916,99.224 C464.569,103.631 468.913,105.945 469.039,109.153 C469.144,111.772 466.43,113.95 466.43,113.95 C466.43,113.95 471.3,113.066 472.826,109.069 C474.508,104.63 469.544,101.601 470.049,98.046 C470.533,94.649 480.819,88.369 480.819,88.369 Z M484.522,111.173 C482.933,111.099 481.145,111.688 479.557,112.856 C482.692,112.161 485.363,114.128 485.363,116.39 C485.363,121.459 478.127,126.235 478.127,126.235 C478.127,126.235 489.318,124.983 489.318,116.642 C489.318,113.203 487.162,111.299 484.522,111.173 Z M454.818,111.257 C450.916,111.394 443.122,112.035 443.122,115.043 C443.122,119.23 461.277,119.556 474.256,116.979 C474.256,116.979 477.79,114.517 478.716,113.613 C470.206,115.38 450.779,115.653 450.779,114.118 C450.779,112.708 457.006,111.257 457.006,111.257 C457.006,111.257 456.123,111.215 454.818,111.257 Z M453.64,118.998 C451.505,118.998 448.339,120.66 448.339,122.28 C448.339,125.541 464.411,128.044 476.275,123.29 L472.152,120.765 C464.106,123.395 449.244,122.522 453.64,118.998 Z M455.66,126.319 C452.746,126.319 450.864,128.16 450.864,129.516 C450.864,133.692 468.271,134.102 475.182,129.853 L470.806,126.992 C465.652,129.211 452.683,129.537 455.66,126.319 Z M445.899,130.105 C441.145,130.011 438.074,132.167 438.074,133.976 C438.074,143.6 486.794,143.137 486.794,133.303 C486.794,131.673 484.869,130.894 484.185,130.526 C488.161,139.929 444.384,139.193 444.384,133.639 C444.384,132.377 447.624,131.115 450.611,131.704 L448.087,130.274 C447.34,130.158 446.583,130.116 445.899,130.105 Z M491.926,136.585 C484.522,143.747 465.778,146.314 446.909,141.886 C465.778,149.774 491.832,145.388 491.926,136.585 Z" />
        </g>
        <g id="Black-S">
            <path d="M669.376,76 C673.152,84.909 655.839,90.368 654.229,97.794 C652.757,104.609 664.485,112.603 664.495,112.603 C662.707,109.784 661.403,107.407 659.615,103.011 C656.585,95.585 678.074,88.885 669.376,76 Z M680.819,88.369 C680.819,88.369 665.684,89.327 664.916,99.224 C664.569,103.631 668.913,105.945 669.039,109.153 C669.144,111.772 666.43,113.95 666.43,113.95 C666.43,113.95 671.3,113.066 672.826,109.069 C674.508,104.63 669.544,101.601 670.049,98.046 C670.533,94.649 680.819,88.369 680.819,88.369 Z M684.522,111.173 C682.933,111.099 681.145,111.688 679.557,112.856 C682.692,112.161 685.363,114.128 685.363,116.39 C685.363,121.459 678.127,126.235 678.127,126.235 C678.127,126.235 689.318,124.983 689.318,116.642 C689.318,113.203 687.162,111.299 684.522,111.173 Z M654.818,111.257 C650.916,111.394 643.122,112.035 643.122,115.043 C643.122,119.23 661.277,119.556 674.256,116.979 C674.256,116.979 677.79,114.517 678.716,113.613 C670.206,115.38 650.779,115.653 650.779,114.118 C650.779,112.708 657.006,111.257 657.006,111.257 C657.006,111.257 656.123,111.215 654.818,111.257 Z M653.64,118.998 C651.505,118.998 648.339,120.66 648.339,122.28 C648.339,125.541 664.411,128.044 676.275,123.29 L672.152,120.765 C664.106,123.395 649.244,122.522 653.64,118.998 Z M655.66,126.319 C652.746,126.319 650.864,128.16 650.864,129.516 C650.864,133.692 668.271,134.102 675.182,129.853 L670.806,126.992 C665.652,129.211 652.683,129.537 655.66,126.319 Z M645.899,130.105 C641.145,130.011 638.073,132.167 638.073,133.976 C638.073,143.6 686.794,143.137 686.794,133.303 C686.794,131.673 684.869,130.894 684.185,130.526 C688.161,139.929 644.384,139.193 644.384,133.639 C644.384,132.377 647.624,131.115 650.611,131.704 L648.087,130.274 C647.34,130.158 646.583,130.116 645.899,130.105 Z M691.926,136.585 C684.522,143.747 665.778,146.314 646.909,141.886 C665.778,149.774 691.832,145.388 691.926,136.585 Z" />
        </g>
    </g>
</svg>